<?xml version="1.0" encoding="UTF-8"?>
<svg width="58px" height="14px" viewBox="0 0 58 14" version="1.1" xmlns="http://www.w3.org/2000/svg" xmlns:xlink="http://www.w3.org/1999/xlink">
    <!-- Generator: Sketch 62 (91390) - https://sketch.com -->
    <title>Combined Shape</title>
    <desc>Created with Sketch.</desc>
    <g id="Hifi-Round-1" stroke="none" stroke-width="1" fill="none" fill-rule="evenodd">
        <g id="Investment-Strategy" transform="translate(-43.000000, -37.000000)" fill="#FFFFFF" fill-rule="nonzero">
            <path d="M45.2872326,37 L45.2872326,44.2503597 L54.9420752,37 L58.2375891,37 L51.1902485,42.2978417 L59,51 L56.0651433,51 L49.4386874,43.6323741 L45.2872326,46.7460432 L45.2872326,51 L43,51 L43,37 L45.2872326,37 Z M66.2870301,37 L66.2870301,44.2503597 L75.9424346,37 L79.2369482,37 L72.1902316,42.2978417 L80,51 L77.0646945,51 L70.4395342,43.6323741 L66.2870301,46.7460432 L66.2870301,51 L64,51 L64,37 L66.2870301,37 Z M96.127566,37 C99.090905,37 100.881089,38.7020708 100.881089,41.4091259 C100.881089,43.8830995 99.3222007,45.200298 97.217338,45.5463234 L101,51 L98.2897087,51 L94.4722437,45.6628642 L87.336158,45.6628642 L87.336158,51 L85,51 L85,37 L96.127566,37 Z M95.564191,39.107086 L87.336158,39.107086 L87.336158,43.5543394 L95.7751847,43.5543394 C97.529841,43.5543394 98.486201,42.7809979 98.486201,41.4091259 C98.486201,39.8610041 97.529841,39.107086 95.564191,39.107086 Z" id="Combined-Shape"></path>
        </g>
    </g>
</svg>