<svg xmlns="http://www.w3.org/2000/svg" xmlns:xlink="http://www.w3.org/1999/xlink" version="1.1" id="Layer_1" x="0px" y="0px" viewBox="0 0 193 20" enable-background="new 0 0 193 20" xml:space="preserve">
<polygon fill="#696B73" points="98.1,16.2 95.2,12.8 95.2,16.2 94.2,16.2 94.2,9.4 95.2,9.4 95.2,12.7 97.7,9.4 98.9,9.4 96.4,12.8 99.4,16.2"/>
<g>
	<defs>
		<rect id="SVGID_1_" y="0.2" width="192.4" height="19.8"/>
	</defs>
	<clipPath id="SVGID_2_">
		<use xlink:href="#SVGID_1_" overflow="visible"/>
	</clipPath>
	<path clip-path="url(#SVGID_2_)" fill="#696B73" d="M102.4 12.7c-0.1-0.2-0.5-0.4-0.9-0.4c-0.4 0-0.7 0.2-0.9 0.4 c-0.2 0.3-0.2 0.7-0.2 1.1c0 0.4 0 0.8 0.2 1.1c0.2 0.2 0.5 0.4 0.9 0.4c0.4 0 0.8-0.2 0.9-0.4c0.2-0.3 0.2-0.7 0.2-1.1 C102.6 13.4 102.5 13 102.4 12.7 M103.2 15.4c-0.4 0.6-1 0.9-1.8 0.9c-0.7 0-1.4-0.3-1.8-0.9c-0.3-0.5-0.3-1.2-0.3-1.6 c0-0.5 0-1.1 0.3-1.6c0.4-0.6 1-0.9 1.8-0.9c0.7 0 1.4 0.3 1.8 0.9c0.3 0.5 0.3 1.1 0.3 1.6C103.6 14.3 103.5 14.9 103.2 15.4"/>
</g>
<polygon fill="#696B73" points="137.1,16.2 134.3,12.8 134.3,16.2 133.3,16.2 133.3,9.4 134.3,9.4 134.3,12.7 136.7,9.4 137.9,9.4 135.5,12.8 138.5,16.2"/>
<g>
	<defs>
		<rect id="SVGID_3_" y="0.2" width="192.4" height="19.8"/>
	</defs>
	<clipPath id="SVGID_4_">
		<use xlink:href="#SVGID_3_" overflow="visible"/>
	</clipPath>
	<path clip-path="url(#SVGID_4_)" fill="#696B73" d="M107.3 16.2v-2.7c0-0.4 0-0.7-0.2-0.9c-0.1-0.2-0.4-0.3-0.8-0.3 c-0.4 0-0.7 0.2-0.8 0.4c-0.1 0.1-0.1 0.2-0.1 0.3v3.2h-1V9.4h1v2.1c0.3-0.1 0.6-0.2 0.9-0.2c0.7 0 1.3 0.3 1.7 0.8 c0.3 0.5 0.3 1 0.3 1.4v2.7H107.3z"/>
	<path clip-path="url(#SVGID_4_)" fill="#696B73" d="M109.4 15.7c-0.1-0.3-0.2-0.6-0.2-0.8V9.4h0.9v5.6c0 0.3 0 0.3 0.4 0.3v1 C109.9 16.2 109.6 16.1 109.4 15.7"/>
	<path clip-path="url(#SVGID_4_)" fill="#696B73" d="M114.3 12.7c-0.1-0.2-0.4-0.4-0.8-0.4s-0.7 0.2-0.8 0.4 c-0.1 0.1-0.1 0.3-0.1 0.4v1.3c0 0.2 0.1 0.3 0.1 0.4c0.1 0.3 0.4 0.4 0.8 0.4s0.7-0.2 0.8-0.4c0.2-0.3 0.2-0.7 0.2-1.1 C114.5 13.4 114.5 13 114.3 12.7 M115.2 15.4c-0.3 0.6-1 0.9-1.7 0.9c-0.3 0-0.7 0-0.9-0.3v0.2h-1V9.4h1v2.2 c0.3-0.2 0.5-0.3 0.9-0.3c0.7 0 1.4 0.3 1.7 0.9c0.3 0.5 0.3 1.1 0.3 1.6C115.5 14.2 115.5 14.9 115.2 15.4"/>
	<path clip-path="url(#SVGID_4_)" fill="#696B73" d="M119.1 12.8c-0.2-0.3-0.4-0.4-0.8-0.4c-0.7 0-1 0.3-1.1 0.9h2 C119.2 13 119.1 12.8 119.1 12.8 M117.2 14.2c0 0.3 0.1 0.5 0.2 0.7c0.2 0.2 0.5 0.4 1 0.4c0.4 0 0.7-0.1 1-0.5l0.8 0.6 c-0.5 0.6-1.2 0.8-1.8 0.8c-0.8 0-1.5-0.3-1.8-0.9c-0.3-0.5-0.4-1.2-0.4-1.6c0-0.5 0-1.1 0.4-1.6c0.4-0.6 1-0.9 1.8-0.9 c0.7 0 1.3 0.3 1.6 0.9c0.4 0.5 0.3 1.3 0.3 2H117.2z"/>
	<path clip-path="url(#SVGID_4_)" fill="#696B73" d="M123.7 12.5c-0.3-0.2-0.5-0.2-0.7-0.2c-0.4 0-0.9 0.2-0.9 0.7v3.2h-1v-4.8h1 v0.1c0.3-0.1 0.6-0.2 0.9-0.2c0.3 0 0.7 0.1 1.1 0.3L123.7 12.5z"/>
	<path clip-path="url(#SVGID_4_)" fill="#696B73" d="M126.8 12.4c-0.1-0.1-0.3-0.2-0.6-0.2c-0.3 0-0.5 0.1-0.6 0.2 c-0.1 0.1-0.2 0.3-0.2 0.6c0 0.3 0.1 0.6 0.2 0.7c0.1 0.1 0.3 0.2 0.6 0.2c0.2 0 0.5-0.1 0.6-0.2c0.1-0.1 0.2-0.4 0.2-0.7 C127.1 12.7 127 12.5 126.8 12.4 M126.2 18.1c-0.9 0-2.2-0.5-1.9-1.9l1 0.3c0 0.1 0 0.3 0 0.4c0.1 0.1 0.4 0.3 0.9 0.3 c0.7 0 1.2-0.5 1.3-0.9c0-0.2-0.1-0.4-0.5-0.4c-0.1 0-0.3 0-0.4 0.1c-0.5 0.1-1.2 0.3-1.6 0c-0.6-0.4-0.5-1.1 0-1.6 c-0.4-0.3-0.5-0.9-0.5-1.3c0-0.6 0.2-1.1 0.6-1.4c0.4-0.3 0.8-0.3 1.2-0.3c0.4 0 0.8 0 1.1 0.3c0 0 0-0.1 0-0.4h1 c0 0.5-0.1 0.9-0.5 1.2c0.1 0.2 0.1 0.5 0.1 0.7c0 0.6-0.2 1.1-0.6 1.5c-0.4 0.3-0.9 0.3-1.2 0.3c-0.1 0-0.3 0-0.5 0 c-0.2 0.2-0.3 0.3-0.2 0.4c0 0.1 0.2 0.1 0.3 0.1c0.2 0 0.4-0.1 0.5-0.1c0.2-0.1 0.4-0.1 0.5-0.1c0.9-0.1 1.8 0.5 1.6 1.5 C128.5 16.6 128.1 18.1 126.2 18.1"/>
</g>
<polygon fill="#696B73" points="137.1,16.2 134.3,12.8 134.3,16.2 133.3,16.2 133.3,9.4 134.3,9.4 134.3,12.7 136.7,9.4 137.9,9.4 135.5,12.8 138.5,16.2"/>
<g>
	<defs>
		<rect id="SVGID_5_" y="0.2" width="192.4" height="19.8"/>
	</defs>
	<clipPath id="SVGID_6_">
		<use xlink:href="#SVGID_5_" overflow="visible"/>
	</clipPath>
	<path clip-path="url(#SVGID_6_)" fill="#696B73" d="M141.6 12.5c-0.3-0.2-0.5-0.2-0.6-0.2c-0.4 0-0.9 0.2-0.9 0.7v3.2h-1v-4.8h1 v0.1c0.3-0.1 0.6-0.2 0.9-0.2c0.3 0 0.6 0.1 1.1 0.3L141.6 12.5z"/>
	<path clip-path="url(#SVGID_6_)" fill="#696B73" d="M145.1 14.2c-0.1 0-0.2 0-0.3 0H144c-0.4 0-0.7 0.4-0.7 0.6 c0 0.3 0.3 0.6 0.7 0.6c0.5 0 0.8-0.1 1.1-0.4V14.2z M145.3 16.3l-0.1-0.3c-0.3 0.1-0.7 0.3-1.2 0.3c-0.9 0-1.7-0.6-1.7-1.5 c0-0.9 0.8-1.6 1.7-1.6h0.8c0.1 0 0.2 0 0.3-0.1v-0.4c0-0.2-0.3-0.5-0.7-0.5c-0.4 0-0.8 0.1-1 0.6l-1-0.3c0.4-1 1.2-1.3 2-1.3 c0.9 0 1.7 0.6 1.7 1.4v2.7l0.2 0.5L145.3 16.3z"/>
</g>
<polygon fill="#696B73" points="149.4,16.2 148.5,16.2 146.7,11.4 147.7,11.4 148.9,14.6 150.1,11.4 151.2,11.4"/>
<g>
	<defs>
		<rect id="SVGID_7_" y="0.2" width="192.4" height="19.8"/>
	</defs>
	<clipPath id="SVGID_8_">
		<use xlink:href="#SVGID_7_" overflow="visible"/>
	</clipPath>
	<path clip-path="url(#SVGID_8_)" fill="#696B73" d="M151.9 11.4h1v4.9h-1V11.4z M152.4 10.3c-0.3 0-0.6-0.3-0.6-0.6 c0-0.3 0.3-0.6 0.6-0.6c0.3 0 0.6 0.3 0.6 0.6C153 10.1 152.8 10.3 152.4 10.3"/>
	<path clip-path="url(#SVGID_8_)" fill="#696B73" d="M155.7 16.3c-1 0-1.7-0.4-2-1.4l1-0.2c0.2 0.5 0.5 0.6 1 0.6 c0.3 0 0.9-0.1 0.9-0.6c0-1-2.7-0.3-2.7-2.1c0-1 0.9-1.4 1.7-1.4c0.7 0 1.4 0.2 1.8 0.9l-0.9 0.4c-0.2-0.4-0.5-0.4-0.9-0.4 c-0.4 0-0.7 0.1-0.7 0.4c0 0.7 2.7 0.2 2.7 2.1C157.6 15.8 156.6 16.3 155.7 16.3"/>
	<path clip-path="url(#SVGID_8_)" fill="#696B73" d="M164.8 10.4h-1.4v2h1.4c0.7 0 1.3-0.2 1.3-1C166.1 10.6 165.5 10.4 164.8 10.4 M166.3 16.2l-1.4-2.4c-0.2-0.3-0.3-0.5-0.7-0.5h-0.8v2.9h-1V9.4h2.5c1.3 0 2.4 0.6 2.4 2c0 0.9-0.5 1.6-1.5 1.8l1.7 3H166.3z"/>
	<path clip-path="url(#SVGID_8_)" fill="#696B73" d="M170.6 12.8c-0.1-0.2-0.5-0.4-0.9-0.4c-0.4 0-0.7 0.2-0.9 0.4 c-0.2 0.3-0.2 0.7-0.2 1.1c0 0.4 0 0.8 0.2 1.1c0.2 0.2 0.5 0.4 0.9 0.4c0.4 0 0.8-0.2 0.9-0.4c0.2-0.3 0.2-0.7 0.2-1.1 C170.8 13.5 170.8 13 170.6 12.8 M171.5 15.5c-0.4 0.6-1 0.9-1.8 0.9c-0.7 0-1.4-0.3-1.8-0.9c-0.3-0.5-0.3-1.2-0.3-1.6 c0-0.5 0-1.1 0.3-1.6c0.4-0.6 1-0.9 1.8-0.9c0.7 0 1.4 0.3 1.8 0.9c0.3 0.5 0.3 1.1 0.3 1.6C171.8 14.3 171.8 15 171.5 15.5"/>
	<path clip-path="url(#SVGID_8_)" fill="#696B73" d="M175.2 12.7c-0.1-0.2-0.4-0.4-0.8-0.4c-0.4 0-0.7 0.2-0.8 0.4 c-0.1 0.1-0.1 0.3-0.1 0.4v1.3c0 0.2 0.1 0.3 0.1 0.4c0.1 0.3 0.4 0.4 0.8 0.4c0.4 0 0.7-0.2 0.8-0.4c0.2-0.3 0.2-0.7 0.2-1.1 C175.4 13.4 175.3 13 175.2 12.7 M176 15.4c-0.3 0.6-1 0.9-1.7 0.9c-0.3 0-0.7 0-0.9-0.3v0.2h-1V9.4h1v2.2c0.3-0.2 0.5-0.3 0.9-0.3 c0.7 0 1.4 0.3 1.7 0.9c0.3 0.5 0.3 1.1 0.3 1.6C176.4 14.3 176.3 14.9 176 15.4"/>
	<path clip-path="url(#SVGID_8_)" fill="#696B73" d="M187.1 12.3V15c0 0.1 0 0.1 0 0.2c0 0 0.1 0.1 0.1 0.1h0.4v1h-0.4 c-0.4 0-0.7-0.2-0.9-0.5c-0.2-0.3-0.2-0.6-0.2-0.8v-2.7h-0.6v-0.9h0.6v-1.3h1v1.3h0.7v0.9H187.1z"/>
	<path clip-path="url(#SVGID_8_)" fill="#696B73" d="M190.5 16.3c-1 0-1.7-0.4-2-1.4l1-0.2c0.2 0.5 0.5 0.6 1 0.6 c0.3 0 0.9-0.1 0.9-0.6c0-1-2.7-0.3-2.7-2.1c0-1 0.9-1.4 1.7-1.4c0.7 0 1.4 0.2 1.8 0.9l-0.9 0.4c-0.2-0.4-0.5-0.4-0.9-0.4 c-0.4 0-0.7 0.1-0.7 0.4c0 0.7 2.7 0.2 2.7 2.1C192.4 15.8 191.4 16.3 190.5 16.3"/>
</g>
<rect x="93.5" y="19.2" fill="#48104A" width="98.9" height="0.8"/>
<g>
	<defs>
		<rect id="SVGID_9_" y="0.2" width="192.4" height="19.8"/>
	</defs>
	<clipPath id="SVGID_10_">
		<use xlink:href="#SVGID_9_" overflow="visible"/>
	</clipPath>
	<path clip-path="url(#SVGID_10_)" fill="#696B73" d="M179.9 12.8c-0.2-0.3-0.4-0.4-0.8-0.4c-0.6 0-1 0.3-1.1 0.9h2 C180 13.1 180 12.9 179.9 12.8 M178 14.2c0 0.3 0.1 0.5 0.2 0.7c0.2 0.2 0.5 0.4 1 0.4c0.4 0 0.7-0.1 1-0.5l0.8 0.6 c-0.5 0.6-1.1 0.8-1.8 0.8c-0.8 0-1.5-0.3-1.8-0.9c-0.3-0.5-0.4-1.2-0.4-1.6c0-0.5 0-1.1 0.4-1.6c0.4-0.6 1-0.9 1.8-0.9 c0.7 0 1.3 0.3 1.6 0.9c0.4 0.5 0.3 1.3 0.3 2H178z"/>
	<path clip-path="url(#SVGID_10_)" fill="#696B73" d="M184.5 12.6c-0.3-0.2-0.5-0.2-0.6-0.2c-0.4 0-0.9 0.2-0.9 0.7v3.2h-1v-4.8h1 v0.1c0.3-0.1 0.6-0.2 0.9-0.2c0.3 0 0.6 0.1 1.1 0.3L184.5 12.6z"/>
</g>
<polygon fill="#48104A" points="17.2,0.2 3.3,10.4 3.3,0.2 0,0.2 0,20 3.3,20 3.3,14 9.3,9.6 18.8,20 23,20 11.8,7.7 21.9,0.2"/>
<polygon fill="#48104A" points="47.9,0.2 34,10.4 34,0.2 30.8,0.2 30.8,20 34,20 34,14 40,9.6 49.5,20 53.7,20 42.5,7.7 52.6,0.2"/>
<g>
	<defs>
		<rect id="SVGID_11_" y="0.2" width="192.4" height="19.8"/>
	</defs>
	<clipPath id="SVGID_12_">
		<use xlink:href="#SVGID_11_" overflow="visible"/>
	</clipPath>
	<path clip-path="url(#SVGID_12_)" fill="#48104A" d="M80.1 6.4c0-2.2-1.3-3.3-4.1-3.3H64.4v6.3h11.8C78.8 9.5 80.1 8.4 80.1 6.4 M79.8 20l-5.4-7.6h-10V20h-3.3V0.2h15.6c4.2 0 6.7 2.4 6.7 6.2c0 3.5-2.2 5.4-5.1 5.9l5.3 7.7H79.8z"/>
</g>
</svg>
